<?xml version="1.0" encoding="UTF-8" standalone="no"?>
<!-- Created with Inkscape (http://www.inkscape.org/) -->

<svg
   width="210mm"
   height="297mm"
   viewBox="0 0 210 297"
   version="1.1"
   id="svg1"
   xml:space="preserve"
   inkscape:version="1.4 (e7c3feb100, 2024-10-09)"
   sodipodi:docname="llama.svg"
   xmlns:inkscape="http://www.inkscape.org/namespaces/inkscape"
   xmlns:sodipodi="http://sodipodi.sourceforge.net/DTD/sodipodi-0.dtd"
   xmlns="http://www.w3.org/2000/svg"
   xmlns:svg="http://www.w3.org/2000/svg"><sodipodi:namedview
     id="namedview1"
     pagecolor="#ffffff"
     bordercolor="#000000"
     borderopacity="0.25"
     inkscape:showpageshadow="2"
     inkscape:pageopacity="0.0"
     inkscape:pagecheckerboard="0"
     inkscape:deskcolor="#d1d1d1"
     inkscape:document-units="mm"
     inkscape:zoom="0.51936728"
     inkscape:cx="169.43693"
     inkscape:cy="511.19893"
     inkscape:window-width="1536"
     inkscape:window-height="792"
     inkscape:window-x="0"
     inkscape:window-y="0"
     inkscape:window-maximized="1"
     inkscape:current-layer="layer1" /><defs
     id="defs1" /><g
     inkscape:label="Layer 1"
     inkscape:groupmode="layer"
     id="layer1"><path
       style="fill:#000000;stroke-width:0.279794"
       d="m 86.650822,154.21879 c -1.539309,-0.50918 -2.90002,-1.57867 -3.685851,-2.89699 -0.55529,-0.93156 -0.690916,-1.80763 -0.497879,-3.21602 0.155551,-1.13489 0.46432,-1.91822 1.00287,-2.5442 1.176381,-1.36736 1.101274,-1.2445 1.099407,-1.79856 -0.0017,-0.48663 -0.02229,-0.53911 -0.590184,-1.50024 -0.96552,-1.63407 -1.384721,-2.91725 -2.381643,-7.29024 -0.557671,-2.44622 -0.633783,-2.96877 -0.539005,-3.70064 0.09977,-0.77046 0.276063,-1.28297 0.715268,-2.07946 0.616108,-1.1173 0.730538,-1.55981 0.732308,-2.8319 8.43e-4,-0.60256 -0.05419,-1.43917 -0.122281,-1.85914 -0.06809,-0.41996 -0.123805,-1.16694 -0.123805,-1.65994 0,-1.18988 0.139833,-1.61337 0.953053,-2.88642 1.089142,-1.70498 1.427604,-2.68974 1.558508,-4.53451 0.05012,-0.70628 0.159183,-1.44227 0.291823,-1.96926 0.203123,-0.80702 0.346646,-1.19328 0.988741,-2.66099 0.38147,-0.87197 0.390137,-1.26609 0.03964,-1.8026 -0.139603,-0.21369 -0.303204,-0.43334 -0.363556,-0.48812 -0.175484,-0.15928 -0.590902,-0.85926 -0.788097,-1.32795 -0.09987,-0.23738 -0.200083,-0.67064 -0.222694,-0.96281 -0.03585,-0.46317 -0.01984,-0.55235 0.124984,-0.69622 0.236112,-0.23457 0.739848,-0.21713 1.197189,0.0414 0.431832,0.24415 0.614302,0.49874 0.815825,1.13824 0.10926,0.34672 0.319402,0.72809 0.649547,1.17882 0.731596,0.9988 0.850525,1.30744 0.856195,2.22202 0.0054,0.87786 -0.123719,1.2702 -1.075456,3.26679 -0.290718,0.60988 -0.606236,1.37179 -0.701151,1.69314 -0.173506,0.58744 -0.175268,0.71186 -0.02623,1.85242 0.09587,0.73371 -0.242336,1.52244 -1.39959,3.26395 -0.870697,1.31028 -1.307253,3.19431 -1.042246,4.49799 0.129735,0.63821 0.33423,1.08014 0.71646,1.5483 0.566375,0.6937 0.499612,1.03512 -0.425721,2.17712 -0.596505,0.73617 -0.805166,1.07614 -1.055169,1.71919 -0.3134,0.80611 -0.424671,1.44042 -0.419306,2.39031 0.0058,1.02553 0.164447,1.7002 0.577717,2.45672 0.652053,1.19363 0.881697,1.91964 1.018611,3.22029 0.215629,2.04844 0.384122,2.68058 0.912947,3.42513 0.321587,0.45278 1.044204,0.99054 1.625547,1.2097 0.432828,0.16317 0.558725,0.17858 1.423985,0.17419 0.522048,-0.003 1.360237,-0.029 1.862643,-0.0586 1.016871,-0.0599 1.273771,-0.008 1.273771,0.25601 0,0.0851 -0.07759,0.23406 -0.172433,0.33105 -0.222319,0.22737 -1.4978,0.72009 -2.344952,0.90586 -0.865559,0.1898 -1.72249,0.51098 -2.549036,0.95537 -1.672443,0.89919 -2.27527,1.77385 -2.278171,3.30548 -0.0026,1.37735 0.153638,1.62722 1.962325,3.13816 1.975397,1.65021 2.385156,2.18048 1.897339,2.45535 -0.271342,0.15289 -0.931991,0.12712 -1.49225,-0.0582 z m 37.947928,-2.35832 c -0.23918,-0.078 -0.37485,-0.22928 -0.45182,-0.50382 -0.0592,-0.21124 -0.0376,-0.26567 0.18772,-0.47211 0.32693,-0.29954 0.93788,-0.63028 2.12405,-1.14985 2.00648,-0.8789 2.91105,-1.74245 2.92342,-2.79087 0.007,-0.59088 -0.2901,-1.0222 -1.03209,-1.49845 -0.86769,-0.55695 -0.91946,-0.84307 -0.33776,-1.8667 0.53263,-0.93728 0.6324,-1.27849 0.62748,-2.14586 -0.007,-1.206 -0.37464,-1.82741 -1.47637,-2.49449 -0.96877,-0.58658 -0.98324,-0.74406 -0.19486,-2.12015 1.01885,-1.77833 1.25579,-2.22461 1.52597,-2.87416 0.95807,-2.30328 0.78543,-4.13194 -0.55924,-5.92353 -0.66175,-0.8817 -1.00068,-1.45418 -1.04401,-1.76343 -0.0539,-0.38444 0.12543,-0.77744 0.72891,-1.59771 0.59738,-0.81197 1.11656,-1.74264 1.47378,-2.64187 0.3959,-0.99658 0.50119,-1.49567 0.50119,-2.37586 v -0.80086 l -0.32338,-0.47296 c -0.56094,-0.82041 -0.71029,-1.28895 -0.67987,-2.1329 0.0641,-1.77722 0.0505,-1.95979 -0.19073,-2.55631 -0.22265,-0.5507 -0.76769,-1.69284 -0.99809,-2.09153 -0.0633,-0.10955 -0.25273,-0.52786 -0.42092,-0.92957 -0.28286,-0.67557 -0.30623,-0.79015 -0.31145,-1.52714 -0.007,-0.95652 0.0907,-1.23725 0.75753,-2.18243 0.31803,-0.45077 0.53194,-0.86143 0.6854,-1.31577 0.24238,-0.71765 0.44512,-0.95781 1.00363,-1.18892 0.41751,-0.17276 0.69206,-0.15964 0.94675,0.0453 0.20402,0.16412 0.21175,0.19667 0.16946,0.71377 -0.0593,0.72538 -0.41034,1.53472 -1.01344,2.33661 -0.71507,0.95079 -0.71829,1.33562 -0.0227,2.72025 0.67929,1.35221 1.00747,2.51297 1.14193,4.03888 0.10209,1.15854 0.0978,1.13823 0.55094,2.60089 0.33912,1.09461 0.37392,1.28453 0.41372,2.25752 0.0333,0.81392 0.0118,1.20988 -0.0921,1.69314 -0.17931,0.83423 -0.92913,2.61087 -1.55526,3.68507 -0.45876,0.78706 -0.50608,0.91001 -0.53659,1.39435 -0.0331,0.52599 -0.0294,0.5378 0.38132,1.20833 0.77818,1.27042 1.01292,2.1619 1.0106,3.8379 -0.002,1.73589 -0.25971,2.9329 -1.04191,4.84703 -0.26949,0.65948 -0.39351,1.08489 -0.42682,1.46414 -0.0546,0.62172 0.0167,0.7757 0.62903,1.35776 0.83923,0.79779 0.95226,1.11463 0.887,2.48632 -0.0261,0.54976 -0.0864,1.31329 -0.13387,1.69673 -0.11124,0.89841 0.008,1.93936 0.28042,2.45633 0.10611,0.20107 0.28875,0.54485 0.40587,0.76396 0.41915,0.78418 0.24997,1.84602 -0.44439,2.78905 -1.20955,1.64277 -4.80684,3.43534 -6.0684,3.02397 z m -18.32826,-28.71923 c -1.09555,-0.19175 -2.17449,-0.69953 -3.49997,-1.64718 -0.88753,-0.63455 -1.42656,-1.11511 -2.32418,-2.07208 -0.35465,-0.37809 -1.05936,-0.99274 -1.636731,-1.42755 -1.908444,-1.43722 -2.225811,-1.70703 -2.436824,-2.07165 -0.379816,-0.65632 -0.274817,-0.89309 1.023742,-2.30855 0.694662,-0.7572 1.989971,-2.41343 1.989971,-2.54445 0,-0.0159 -0.279574,0.0247 -0.621277,0.0902 -1.890899,0.36241 -4.09291,0.30067 -6.311849,-0.17699 -2.667616,-0.57423 -3.324076,-1.30099 -4.552293,-5.03977 -0.765655,-2.33071 -0.815084,-2.42662 -1.421379,-2.75785 -0.17471,-0.0954 -0.349907,-0.21991 -0.389327,-0.27658 -0.08929,-0.12835 -0.322515,-1.35762 -0.322515,-1.69988 0,-0.47993 0.109379,-0.52057 2.007529,-0.74594 4.330494,-0.514178 8.950149,-0.24788 15.585113,0.89839 1.34588,0.23252 2.74799,0.45815 3.11578,0.50142 0.79354,0.0933 1.26585,0.0486 3.59106,-0.34011 4.21026,-0.70384 6.35212,-0.94221 10.1598,-1.13067 2.94495,-0.14575 7.66139,0.0888 8.53663,0.4245 0.27872,0.10691 0.30443,0.36686 0.13167,1.33133 -0.17166,0.95839 -0.15526,0.92508 -0.54175,1.09983 -0.56587,0.25584 -0.67529,0.46074 -1.38798,2.599 -1.07369,3.22134 -1.74282,4.21502 -3.23074,4.7977 -1.13299,0.44369 -2.7987,0.74463 -4.53954,0.82014 -1.09935,0.0477 -2.26367,-0.045 -3.44074,-0.27392 -0.44511,-0.0866 -0.81393,-0.15229 -0.8196,-0.14606 -0.006,0.006 0.19274,0.31011 0.44092,0.6753 0.55048,0.81 1.17408,1.573 1.79081,2.19112 0.60086,0.60221 0.95563,1.16826 0.95563,1.52472 0,0.58696 -0.41541,1.01507 -2.0901,2.15401 -0.87879,0.59765 -1.37315,1.02704 -2.18496,1.89781 -0.76246,0.81784 -2.378,2.12684 -3.31837,2.68873 -1.51446,0.90492 -2.85988,1.20979 -4.25853,0.965 z m 2.24008,-1.35431 c 0.6333,-0.25324 0.96726,-0.43714 1.32898,-0.73183 0.69244,-0.56412 1.81516,-2.04444 1.65082,-2.17664 -0.0265,-0.0213 -0.52292,0.14384 -1.10316,0.36702 -0.58024,0.22317 -1.25198,0.43918 -1.49276,0.48 -0.26892,0.0456 -1.01707,0.064 -1.93963,0.0478 -1.68214,-0.0296 -1.82603,-0.0565 -3.3051,-0.61684 -0.44706,-0.16937 -0.83395,-0.29094 -0.85978,-0.27017 -0.0646,0.052 0.37665,0.72678 0.85789,1.31206 0.75328,0.91613 1.63853,1.4892 2.86475,1.85453 0.61302,0.18264 1.00765,0.13012 1.99799,-0.2659 z m -2.66528,-3.48114 c 0.43771,-0.43974 0.51672,-1.74387 0.15214,-2.51134 -0.39686,-0.83543 -1.19065,-1.52611 -2.36026,-2.05367 -0.5704,-0.25728 -1.15683,-0.67059 -1.32694,-0.93523 -0.15699,-0.24422 -0.15042,-0.78591 0.0118,-0.97222 0.25134,-0.28866 1.13293,-0.54468 1.52814,-0.44377 0.10235,0.0261 0.62505,0.38465 1.16157,0.79671 1.08136,0.83053 1.48437,1.02784 2.09742,1.0269 0.54454,-7.5e-4 0.99632,-0.21629 2.14054,-1.02083 0.49935,-0.35112 1.03224,-0.68601 1.18418,-0.74421 0.70703,-0.27082 1.74589,0.28331 1.74589,0.93126 0,0.47228 -0.54313,0.94978 -1.60565,1.41164 -1.16564,0.50668 -2.1827,1.58478 -2.44163,2.58813 -0.21559,0.83543 0.0335,1.78629 0.53762,2.05199 0.18664,0.0984 0.23632,0.0977 0.6386,-0.009 1.01969,-0.27085 4.6146,-1.56988 5.67733,-2.0515 1.2231,-0.55431 1.27081,-0.74672 0.49989,-2.01591 -1.89201,-3.11485 -2.76299,-3.94245 -4.45595,-4.23398 -0.78191,-0.13465 -3.77032,-0.24805 -5.45318,-0.20694 -3.15866,0.0772 -3.98977,0.48747 -5.608945,2.76898 -1.055988,1.48795 -1.602979,2.43117 -1.608306,2.77332 -0.0045,0.29035 0.01582,0.31821 0.407928,0.55853 0.461491,0.28285 3.309793,1.46421 4.704623,1.95129 1.67714,0.58567 2.07234,0.6423 2.3732,0.34004 z m -0.43357,-9.24482 c 0.9306,-0.0238 2.67626,-0.013 3.87924,0.0239 1.20298,0.037 2.1968,0.0596 2.20848,0.0503 0.0117,-0.009 -0.16144,-0.23829 -0.38471,-0.50886 -0.59673,-0.72316 -1.23685,-1.73462 -1.93875,-3.06348 -0.72354,-1.36982 -0.8177,-1.4993 -1.17857,-1.62059 -0.34827,-0.11707 -1.19383,-0.11628 -1.54405,0.001 -0.35585,0.11961 -0.51483,0.33971 -1.08458,1.50156 -0.58991,1.20295 -1.2758,2.3072 -1.92922,3.10596 -0.27718,0.33882 -0.50396,0.6254 -0.50396,0.63685 0,0.0114 0.17642,-0.003 0.39205,-0.0315 0.21563,-0.0288 1.15346,-0.0718 2.08407,-0.0956 z M 87.005916,99.942276 c -0.565211,-0.149701 -1.151101,-0.457502 -1.568207,-0.823866 -0.249675,-0.219301 -0.867025,-0.745438 -1.371888,-1.169193 -1.858912,-1.560268 -3.371435,-3.425345 -4.070891,-5.019773 -0.577887,-1.317313 -0.731893,-3.03244 -0.423315,-4.714378 0.306219,-1.669077 1.073353,-4.226053 1.615534,-5.384828 0.704601,-1.505906 1.842653,-2.670402 3.095039,-3.166955 0.483307,-0.191624 0.610133,-0.212711 1.279327,-0.212711 1.369577,0 1.997117,0.380403 3.36199,2.037977 1.197063,1.453779 3.283043,4.168051 4.812283,6.261734 0.400103,0.547781 0.925903,1.24436 1.168444,1.547955 l 0.440984,0.55199 0.629575,-0.538377 c 0.655459,-0.560511 1.892627,-1.351947 2.670764,-1.708529 0.670199,-0.307119 1.460885,-0.503735 1.833165,-0.455845 0.87864,0.113027 1.85152,0.620477 3.18134,1.659389 l 1.01334,0.791663 1.2977,-1.065715 c 0.90981,-0.747168 1.49446,-1.167563 1.95597,-1.406451 1.59517,-0.825704 3.31007,-1.059043 4.42386,-0.601936 0.42922,0.176153 0.95102,0.679267 1.11407,1.074177 0.1868,0.452434 0.60806,0.814777 1.10011,0.94625 0.21677,0.05792 0.85514,0.132466 1.4186,0.165657 1.30061,0.07661 2.33303,0.359646 3.0281,0.830143 l 0.25259,0.170984 0.16567,-0.187167 c 0.0911,-0.102942 0.94237,-1.231463 1.89167,-2.507824 3.09757,-4.164802 4.93587,-6.442476 5.59292,-6.929697 0.61692,-0.457456 1.1849,-0.636378 2.02016,-0.636378 0.63926,0 0.75859,0.02191 1.34367,0.246653 1.59795,0.613818 2.77199,2.095758 3.61139,4.558513 0.84541,2.480387 1.1874,4.124316 1.18972,5.718867 0.002,1.425857 -0.15303,2.151313 -0.7029,3.287467 -0.68342,1.412139 -2.54177,3.649913 -3.72126,4.481063 -1.91702,1.350852 -3.11971,1.882754 -4.44435,1.965552 -0.61691,0.03856 -0.89101,-0.04591 -1.05798,-0.326039 -0.24198,-0.405982 0.24511,-0.985814 1.32725,-1.579967 1.43037,-0.785354 2.883,-1.737941 3.69762,-2.424797 1.78549,-1.505436 2.5134,-2.956669 2.61026,-5.204086 0.094,-2.180583 -0.40062,-4.4134 -1.51493,-6.838961 -0.63227,-1.376269 -1.485,-2.523112 -1.87607,-2.523112 -0.20663,0 -0.32397,0.284184 -0.70663,1.711386 -0.76913,2.868667 -1.89199,5.847142 -3.47246,9.211033 -0.91995,1.958027 -0.83391,1.859135 -1.61737,1.859135 -0.42229,0 -0.55501,-0.02694 -0.69755,-0.141613 -0.17317,-0.139302 -0.17377,-0.147972 -0.037,-0.531182 0.0765,-0.214262 0.39588,-0.963712 0.70977,-1.665442 0.64729,-1.447098 1.64531,-4.088093 2.17755,-5.76228 0.42788,-1.345946 0.5158,-1.729958 0.38069,-1.662785 -0.21897,0.10887 -3.75581,4.551346 -5.10344,6.410219 -0.80922,1.116215 -0.94675,1.394764 -0.8535,1.72865 0.0917,0.328329 0.015,0.537592 -0.25222,0.688165 -0.53125,0.299337 -0.95471,0.03509 -1.58537,-0.989265 -0.68837,-1.118107 -0.96179,-1.261556 -2.40453,-1.261556 -1.27515,0 -1.67144,0.15506 -2.8593,1.118782 -0.72031,0.58439 -0.91444,0.707154 -1.11825,0.707154 -0.48743,0 -0.54934,-0.519297 -0.27312,-2.29072 0.0908,-0.582239 0.16508,-1.248502 0.16508,-1.480583 0,-0.377853 -0.0252,-0.442256 -0.24126,-0.616051 -0.21364,-0.171856 -0.29861,-0.194086 -0.74196,-0.194086 -1.42026,0 -2.68027,0.861041 -5.48976,3.751469 -0.53244,0.547781 -0.99307,1.002605 -1.02362,1.010721 -0.0306,0.0081 -0.45569,-0.530887 -0.94474,-1.197782 -1.74323,-2.377162 -2.70798,-2.886356 -4.278938,-2.258428 -1.080902,0.432049 -1.97227,1.261303 -3.044857,2.832683 -0.629708,0.922545 -0.936782,1.102482 -1.489244,0.872657 -0.264198,-0.109906 -0.264696,-0.111338 -0.276653,-0.795067 -0.0077,-0.439321 -0.03489,-0.502977 -0.496619,-1.161959 -1.095687,-1.563767 -5.187023,-6.759848 -5.409865,-6.870642 -0.04878,-0.02426 -0.08559,0.01779 -0.08559,0.09777 0,0.243029 0.459639,1.69662 1.102364,3.486183 0.571272,1.590613 0.838714,2.254399 1.908814,4.737627 0.46205,1.072213 0.464387,1.259386 0.01742,1.395646 -0.427962,0.130467 -1.015784,0.03888 -1.2238,-0.19068 -0.34038,-0.375632 -2.381283,-5.007558 -3.115754,-7.071353 -0.493777,-1.387466 -0.957344,-2.869129 -1.23938,-3.961329 -0.284113,-1.100243 -0.462273,-1.51648 -0.649092,-1.51648 -0.39598,0 -1.191965,1.065943 -1.859325,2.489913 -1.036141,2.210856 -1.544227,4.316297 -1.544227,6.399077 0,1.219974 0.132047,2.027853 0.467733,2.86165 0.717318,1.781715 1.999955,2.963947 5.474946,5.046366 1.252003,0.750274 1.521202,0.945474 1.823776,1.322445 0.233446,0.290846 0.233666,0.292172 0.07788,0.468171 -0.08592,0.09707 -0.353494,0.26287 -0.594599,0.368436 -0.362082,0.158534 -0.553463,0.195175 -1.099692,0.210541 -0.363727,0.01023 -0.754175,-0.006 -0.867664,-0.03605 z"
       id="path1" /></g></svg>
